<?xml version="1.0" encoding="UTF-8"?><svg id="Layer_1" xmlns="http://www.w3.org/2000/svg" viewBox="0 0 430.92 83.96"><path d="M.5,67.96c2.81-1.34,3.29-2.68,3.29-7.81V23.19c0-5.25-.61-6.47-3.29-7.81V.99H59.54V29.41h-21.84v-4.03c0-5.61-1.34-6.83-7.69-6.95h-.98v15.25h16.1v16.23H29.05v12.32c0,3.66,1.22,5.12,4.03,5.73v14.4H.5v-14.4Z" style="fill:#ed1c24; stroke:#000; stroke-miterlimit:10;"/><path d="M65.16,68.94c2.44-1.59,2.93-2.93,2.93-7.32v-18.3c-.12-4.51-.49-5.73-2.93-7.32v-13.42h25.01V61.62c0,4.51,.49,5.73,2.81,7.32v13.42h-27.81v-13.42Zm12.93-49.77c-7.08,0-12.08-3.9-12.08-9.39S71.02,.5,78.09,.5s12.2,3.9,12.2,9.27-5.12,9.39-12.2,9.39Z" style="fill:#ed1c24; stroke:#000; stroke-miterlimit:10;"/><path d="M100.29,68.94c2.32-1.59,2.93-2.93,2.93-7.32V21.73c-.12-4.51-.61-5.61-2.93-7.32V.99h25.01V61.62c0,4.51,.49,5.73,2.81,7.32v13.42h-27.81v-13.42Z" style="fill:#ed1c24; stroke:#000; stroke-miterlimit:10;"/><path d="M135.8,68.94c2.44-1.59,2.93-2.93,2.93-7.32v-18.3c-.12-4.51-.49-5.73-2.93-7.32v-13.42h24.28v3.9c4.88-3.29,9.39-4.76,14.88-4.76,6.34,0,10.37,1.95,13.66,5.61,5.98-4.15,10.25-5.61,16.96-5.61,16.23,0,16.96,11.96,16.96,16.83v23.06c0,4.51,.49,5.73,2.81,7.32v13.42h-23.91c-.98-5.98-1.22-9.39-1.22-18.18v-18.79c-.12-5.37-1.46-7.44-4.76-7.44-1.1,0-1.95,.24-3.78,.85v22.81c0,4.51,.49,5.73,2.81,7.32v13.42h-23.91c-.98-5.98-1.22-9.39-1.22-18.18v-18.79c0-5.37-1.34-7.44-4.64-7.44-1.1,0-2.2,.24-3.9,.85v22.81c0,4.51,.49,5.73,2.81,7.32v13.42h-27.81v-13.42Z" style="fill:#ed1c24; stroke:#000; stroke-miterlimit:10;"/><path d="M283.53,43.56h-20.74v-1.22c0-4.15-.37-7.2-4.39-7.2-2.56,0-4.51,1.83-4.51,4.15,0,3.05,1.83,4.39,8.78,5.86,13.66,2.81,22.32,5.12,22.32,18.91,0,14.88-11.1,19.4-25.62,19.4-10.37,0-18.79-2.56-25.86-7.93v-15.49h20.74v2.81c0,4.64,1.46,6.71,4.51,6.71,2.56,0,4.39-1.83,4.39-4.51,0-3.9-1.95-5.12-10.86-7.2-13.05-2.93-19.89-5.61-19.89-17.08,0-12.93,8.17-19.27,24.77-19.27,9.39,0,18.79,2.68,26.35,7.56v14.52Z" style="fill:#ed1c24; stroke:#000; stroke-miterlimit:10;"/><path d="M292.69,67.96c2.68-1.34,3.29-2.68,3.29-7.69V23.19c0-5.25-.61-6.47-3.29-7.81V.99h36.72c18.67,0,26.59,6.47,26.59,26.59v29.16c0,18.67-8.17,25.62-26.47,25.62h-36.84v-14.4Zm30.62-3.42c6.47,0,7.69-1.34,7.69-8.91V25.14c0-4.88-1.83-6.59-6.95-6.59h-2.81v45.99h2.07Z" style="fill:#ed1c24; stroke:#000; stroke-miterlimit:10;"/><path d="M365.27,67.96c2.93-1.59,3.29-2.68,3.29-8.91V24.41c0-6.34-.37-7.44-3.29-9.03V.99h37.94c18.54,0,25.98,6.1,25.98,20.37,0,10.25-3.54,15.37-12.81,18.54,10,2.32,14.03,7.93,14.03,19.4,0,19.88-12.2,23.06-26.84,23.06h-38.31v-14.4Zm31.11-35.26c5.12,0,7.32-2.2,7.32-7.32,0-5.86-2.44-7.32-7.32-7.32h-2.81v14.64h2.81Zm-2.81,32.94h2.81c5.61-.12,7.81-2.56,7.81-9.03s-2.44-8.54-7.81-8.54h-2.81v17.57Z" style="fill:#ed1c24; stroke:#000; stroke-miterlimit:10;"/></svg>